<?xml version="1.0" encoding="UTF-8" standalone="no"?>
<!-- Created with Inkscape (http://www.inkscape.org/) -->

<svg
   xmlns:dc="http://purl.org/dc/elements/1.1/"
   xmlns:cc="http://creativecommons.org/ns#"
   xmlns:rdf="http://www.w3.org/1999/02/22-rdf-syntax-ns#"
   xmlns:svg="http://www.w3.org/2000/svg"
   xmlns="http://www.w3.org/2000/svg"
   xmlns:sodipodi="http://sodipodi.sourceforge.net/DTD/sodipodi-0.dtd"
   xmlns:inkscape="http://www.inkscape.org/namespaces/inkscape"
   width="210mm"
   height="297mm"
   viewBox="0 0 210 297"
   version="1.1"
   id="svg161"
   inkscape:version="0.92.2 5c3e80d, 2017-08-06"
   sodipodi:docname="heartEmoji.svg">
  <defs
     id="defs155" />
  <sodipodi:namedview
     id="base"
     pagecolor="#ffffff"
     bordercolor="#666666"
     borderopacity="1.0"
     inkscape:pageopacity="0.0"
     inkscape:pageshadow="2"
     inkscape:zoom="0.35957031"
     inkscape:cx="215.05703"
     inkscape:cy="560"
     inkscape:document-units="mm"
     inkscape:current-layer="layer1"
     showgrid="false"
     inkscape:window-width="1280"
     inkscape:window-height="755"
     inkscape:window-x="0"
     inkscape:window-y="1"
     inkscape:window-maximized="1" />
  <metadata
     id="metadata158">
    <rdf:RDF>
      <cc:Work
         rdf:about="">
        <dc:format>image/svg+xml</dc:format>
        <dc:type
           rdf:resource="http://purl.org/dc/dcmitype/StillImage" />
        <dc:title></dc:title>
      </cc:Work>
    </rdf:RDF>
  </metadata>
  <g
     inkscape:label="Layer 1"
     inkscape:groupmode="layer"
     id="layer1">
    <path
       inkscape:connector-curvature="0"
       id="path230"
       d="M 100.41729,196.80314 C 85.309131,195.08188 72.146279,188.63446 61.978162,177.97488 42.162947,157.20195 39.38507,125.63213 55.266163,101.69484 c 2.645716,-3.987841 5.070652,-6.832541 9.120472,-10.699251 8.902094,-8.49961 19.372526,-13.711311 32.257456,-16.056301 3.19826,-0.58207 14.930929,-0.81626 19.006959,-0.3794 12.87631,1.38008 24.68935,6.70455 34.46665,15.535131 10.87362,9.820727 17.70204,22.764501 19.85795,37.642181 0.59484,4.1049 0.58565,12.06381 -0.0185,16.02274 -1.25557,8.22761 -3.79318,15.68952 -7.57406,22.27175 -9.36045,16.29582 -24.90848,27.05107 -43.77859,30.28352 -3.58941,0.61486 -14.5031,0.90766 -18.18722,0.48793 z m 13.93857,-7.67211 c 7.63351,-1.17819 12.93432,-3.03581 19.09071,-6.69018 11.25904,-6.68325 19.58429,-17.04742 23.74392,-29.55898 1.74453,-5.2473 2.24088,-8.04005 2.44416,-13.75214 0.39833,-11.19294 -0.97842,-18.23462 -5.30232,-27.11979 -2.842,-5.84003 -6.11137,-10.3498 -10.68691,-14.741511 -13.46494,-12.92398 -31.89916,-17.965151 -48.588829,-13.28748 -18.95974,5.31392 -33.025371,19.708611 -37.960376,38.848471 -1.075135,4.16979 -1.437112,8.78668 -1.246875,15.90343 0.132627,4.96158 0.255974,6.24951 0.835587,8.72479 3.301155,14.0978 11.299864,25.74695 23.025834,33.53432 10.45414,6.94273 23.119009,9.91805 34.645099,8.13907 z m -14.27218,-9.52778 c -3.887099,-0.42072 -10.329809,-2.30275 -13.740899,-4.01396 -4.43985,-2.22731 -7.78037,-4.96995 -9.95666,-8.17469 -2.925789,-4.30841 -3.5697,-8.2919 -2.012095,-12.44763 l 0.630441,-1.68203 12.671894,0.13229 c 17.653929,0.1843 25.558259,0.16643 40.094239,-0.0906 l 12.60568,-0.22295 0.58065,1.54586 c 1.45211,3.86592 1.25224,6.80428 -0.73253,10.76904 -2.34742,4.6892 -7.35237,8.78333 -13.86062,11.33818 -3.40684,1.33738 -8.07626,2.52957 -11.19501,2.85829 -2.75578,0.29047 -12.36205,0.28298 -15.08509,-0.0118 z M 83.404371,132.18546 c -5.77869,-5.85582 -8.120768,-9.12641 -9.224369,-12.88136 -0.48736,-1.65821 -0.52305,-4.53064 -0.07151,-5.75536 0.552135,-1.49758 1.962839,-3.21338 3.132659,-3.81018 2.50963,-1.28032 6.41261,-0.77473 8.97303,1.16236 0.61388,0.46444 1.27336,0.9606 1.4655,1.10258 0.25154,0.18588 0.59233,0.0232 1.21729,-0.58099 0.47738,-0.46152 1.58233,-1.173 2.45545,-1.58106 1.37323,-0.64179 1.90891,-0.74141 3.96875,-0.73808 2.02626,0.003 2.54835,0.099 3.5021,0.64199 2.073709,1.18064 3.214309,3.47938 3.233169,6.51603 0.021,3.38812 -1.12364,5.96739 -4.704709,10.60097 -1.85151,2.39569 -8.93535,9.62064 -9.43464,9.62258 -0.14786,5.3e-4 -2.17858,-1.93419 -4.51272,-4.29948 z m 40.846339,1.05729 c -7.46858,-7.28863 -10.58732,-12.15888 -10.6317,-16.60261 -0.0242,-2.4231 0.36681,-3.83991 1.43229,-5.1899 1.8326,-2.32193 4.5285,-3.00178 7.87391,-1.98565 1.02456,0.3112 2.37654,0.95692 3.0044,1.43493 1.811,1.37876 1.75502,1.36985 2.8878,0.45953 2.39577,-1.9253 6.03626,-2.83735 8.53402,-2.13802 3.51708,0.98472 5.40789,5.18239 4.29359,9.53192 -0.48849,1.90678 -2.01783,4.91207 -3.47162,6.82206 -2.27953,2.99485 -9.89791,10.90889 -10.50135,10.90889 -0.0551,0 -1.59469,-1.45852 -3.42134,-3.24115 z"
       style="fill:#333333;fill-opacity:1;stroke-width:0.26458335" />
  </g>
</svg>
