<?xml version="1.0" encoding="UTF-8" standalone="no"?>
<!-- Created with Inkscape (http://www.inkscape.org/) -->

<svg
   xmlns:dc="http://purl.org/dc/elements/1.1/"
   xmlns:cc="http://creativecommons.org/ns#"
   xmlns:rdf="http://www.w3.org/1999/02/22-rdf-syntax-ns#"
   xmlns:svg="http://www.w3.org/2000/svg"
   xmlns="http://www.w3.org/2000/svg"
   xmlns:sodipodi="http://sodipodi.sourceforge.net/DTD/sodipodi-0.dtd"
   xmlns:inkscape="http://www.inkscape.org/namespaces/inkscape"
   width="210mm"
   height="297mm"
   viewBox="0 0 210 297"
   version="1.1"
   id="svg23"
   inkscape:version="0.92.2 5c3e80d, 2017-08-06"
   sodipodi:docname="laughingEmoji.svg">
  <defs
     id="defs17" />
  <sodipodi:namedview
     id="base"
     pagecolor="#ffffff"
     bordercolor="#666666"
     borderopacity="1.0"
     inkscape:pageopacity="0.0"
     inkscape:pageshadow="2"
     inkscape:zoom="0.71914062"
     inkscape:cx="209.49484"
     inkscape:cy="560"
     inkscape:document-units="mm"
     inkscape:current-layer="layer1"
     showgrid="false"
     inkscape:window-width="1280"
     inkscape:window-height="755"
     inkscape:window-x="0"
     inkscape:window-y="1"
     inkscape:window-maximized="1" />
  <metadata
     id="metadata20">
    <rdf:RDF>
      <cc:Work
         rdf:about="">
        <dc:format>image/svg+xml</dc:format>
        <dc:type
           rdf:resource="http://purl.org/dc/dcmitype/StillImage" />
        <dc:title></dc:title>
      </cc:Work>
    </rdf:RDF>
  </metadata>
  <g
     inkscape:label="Layer 1"
     inkscape:groupmode="layer"
     id="layer1">
    <path
       inkscape:connector-curvature="0"
       id="path92"
       d="M 100.41728,196.80314 C 85.309124,195.08189 72.146274,188.63447 61.978165,177.97489 42.162946,157.20195 39.385069,125.63214 55.266164,101.69485 57.911875,97.707006 60.336815,94.862306 64.386635,90.995586 73.288724,82.49599 83.759164,77.284285 96.64409,74.939298 c 3.19826,-0.582066 14.93093,-0.816259 19.00695,-0.379395 12.87632,1.380071 24.68935,6.704548 34.46666,15.535123 10.87362,9.82073 17.70204,22.764504 19.85795,37.642174 0.59484,4.10491 0.58565,12.06381 -0.0185,16.02274 -1.25557,8.22761 -3.79318,15.68952 -7.57406,22.27175 -9.36045,16.29583 -24.90848,27.05107 -43.77859,30.28352 -3.58941,0.61486 -14.5031,0.90766 -18.18722,0.48793 z m 13.93858,-7.67211 c 7.63351,-1.17819 12.93432,-3.03581 19.0907,-6.69018 11.25905,-6.68325 19.5843,-17.04741 23.74393,-29.55897 1.74453,-5.24731 2.24088,-8.04005 2.44416,-13.75215 0.39833,-11.19294 -0.97842,-18.23461 -5.30232,-27.11979 -2.842,-5.84002 -6.11137,-10.34979 -10.68691,-14.741504 C 130.18047,84.344454 111.74625,79.303291 95.05659,83.980959 76.096844,89.294866 62.031225,103.68957 57.096215,122.82943 c -1.075134,4.16978 -1.437111,8.78667 -1.246874,15.90343 0.132627,4.96158 0.255974,6.2495 0.835587,8.72478 3.301157,14.0978 11.299866,25.74695 23.025826,33.53432 10.454146,6.94274 23.119006,9.91805 34.645106,8.13907 z m -14.27219,-9.52778 c -3.8871,-0.42072 -10.32981,-2.30275 -13.740896,-4.01396 -4.43985,-2.2273 -7.78036,-4.96995 -9.95665,-8.17469 -2.92579,-4.30841 -3.5697,-8.29189 -2.0121,-12.44763 l 0.63044,-1.68203 12.6719,0.13229 c 17.653926,0.18431 25.558246,0.16643 40.094236,-0.0906 l 12.60567,-0.22294 0.58066,1.54586 c 1.45211,3.86591 1.25224,6.80427 -0.73253,10.76903 -2.34742,4.6892 -7.35238,8.78333 -13.86062,11.33818 -3.40685,1.33738 -8.07627,2.52957 -11.19501,2.85829 -2.75578,0.29047 -12.36205,0.28298 -15.0851,-0.0117 z M 80.438364,128.60453 c -0.61846,-0.23764 -1.12448,-0.51506 -1.12448,-0.61649 0,-0.10143 1.96453,-2.00764 4.36562,-4.23602 2.4011,-2.22839 4.36563,-4.13476 4.36563,-4.23639 0,-0.10163 -2.02582,-1.94333 -4.50183,-4.09267 -2.47601,-2.14934 -4.41078,-3.99881 -4.29948,-4.10994 0.11129,-0.11112 0.68618,-0.27933 1.27752,-0.3738 1.03614,-0.16553 1.16098,-0.10176 3.43958,1.75696 3.45563,2.81885 8.052956,6.87044 8.052956,7.09699 0,0.18528 -7.382656,7.10316 -9.166316,8.58925 -0.95684,0.79721 -0.92107,0.79391 -2.4092,0.22211 z m 49.757266,-2.37323 c -1.71809,-1.56435 -3.98481,-3.67771 -5.03717,-4.69636 l -1.91338,-1.85208 3.76513,-3.22053 c 7.07366,-6.0505 7.05189,-6.03727 8.72017,-5.30035 l 0.72171,0.31879 -4.49202,3.90353 c -2.47061,2.14695 -4.49202,4.01183 -4.49202,4.1442 0,0.13236 1.96453,2.05804 4.36562,4.27928 2.4011,2.22123 4.36563,4.08287 4.36563,4.13697 0,0.15051 -2.20629,1.11841 -2.56442,1.12501 -0.17351,0.003 -1.72117,-1.27412 -3.43925,-2.83846 z"
       style="fill:#333333;fill-opacity:1;stroke-width:0.26458335" />
  </g>
</svg>
