<svg aria-hidden="true" style="position: absolute; width: 0; height: 0; overflow: hidden;" version="1.1" xmlns="http://www.w3.org/2000/svg" xmlns:xlink="http://www.w3.org/1999/xlink">
<defs>
<symbol id="icon-laughingEmoji" viewBox="0 0 23 32">
<title>laughingEmoji</title>
<path d="M10.819 21.204c-1.628-0.185-3.046-0.88-4.142-2.029-2.135-2.238-2.434-5.64-0.723-8.219 0.285-0.43 0.546-0.736 0.983-1.153 0.959-0.916 2.087-1.477 3.476-1.73 0.345-0.063 1.609-0.088 2.048-0.041 1.387 0.149 2.66 0.722 3.714 1.674 1.172 1.058 1.907 2.453 2.14 4.056 0.064 0.442 0.063 1.3-0.002 1.726-0.135 0.886-0.409 1.69-0.816 2.4-1.009 1.756-2.684 2.915-4.717 3.263-0.387 0.066-1.563 0.098-1.96 0.053zM12.321 20.378c0.822-0.127 1.394-0.327 2.057-0.721 1.213-0.72 2.11-1.837 2.558-3.185 0.188-0.565 0.241-0.866 0.263-1.482 0.043-1.206-0.105-1.965-0.571-2.922-0.306-0.629-0.658-1.115-1.151-1.588-1.451-1.392-3.437-1.936-5.235-1.432-2.043 0.573-3.558 2.123-4.090 4.186-0.116 0.449-0.155 0.947-0.134 1.713 0.014 0.535 0.028 0.673 0.090 0.94 0.356 1.519 1.218 2.774 2.481 3.613 1.126 0.748 2.491 1.069 3.733 0.877zM10.783 19.351c-0.419-0.045-1.113-0.248-1.48-0.432-0.478-0.24-0.838-0.535-1.073-0.881-0.315-0.464-0.385-0.893-0.217-1.341l0.068-0.181 1.365 0.014c1.902 0.020 2.754 0.018 4.32-0.010l1.358-0.024 0.063 0.167c0.156 0.417 0.135 0.733-0.079 1.16-0.253 0.505-0.792 0.946-1.493 1.222-0.367 0.144-0.87 0.273-1.206 0.308-0.297 0.031-1.332 0.030-1.625-0.001zM8.667 13.856c-0.067-0.026-0.121-0.056-0.121-0.066s0.212-0.216 0.47-0.456c0.259-0.24 0.47-0.445 0.47-0.456s-0.218-0.209-0.485-0.441c-0.267-0.232-0.475-0.431-0.463-0.443s0.074-0.030 0.138-0.040c0.112-0.018 0.125-0.011 0.371 0.189 0.372 0.304 0.868 0.74 0.868 0.765 0 0.020-0.795 0.765-0.988 0.925-0.103 0.086-0.099 0.086-0.26 0.024zM14.028 13.601c-0.185-0.169-0.429-0.396-0.543-0.506l-0.206-0.2 0.406-0.347c0.762-0.652 0.76-0.65 0.94-0.571l0.078 0.034-0.484 0.421c-0.266 0.231-0.484 0.432-0.484 0.447s0.212 0.222 0.47 0.461c0.259 0.239 0.47 0.44 0.47 0.446 0 0.016-0.238 0.12-0.276 0.121-0.019 0-0.185-0.137-0.371-0.306z"></path>
</symbol>
<symbol id="icon-heartEmoji" viewBox="0 0 23 32">
<title>heartEmoji</title>
<path d="M10.819 21.204c-1.628-0.185-3.046-0.88-4.142-2.029-2.135-2.238-2.434-5.64-0.723-8.219 0.285-0.43 0.546-0.736 0.983-1.153 0.959-0.916 2.087-1.477 3.476-1.73 0.345-0.063 1.609-0.088 2.048-0.041 1.387 0.149 2.66 0.722 3.714 1.674 1.172 1.058 1.907 2.453 2.14 4.056 0.064 0.442 0.063 1.3-0.002 1.726-0.135 0.886-0.409 1.69-0.816 2.4-1.009 1.756-2.684 2.915-4.717 3.263-0.387 0.066-1.563 0.098-1.96 0.053zM12.321 20.378c0.822-0.127 1.394-0.327 2.057-0.721 1.213-0.72 2.11-1.837 2.558-3.185 0.188-0.565 0.241-0.866 0.263-1.482 0.043-1.206-0.105-1.965-0.571-2.922-0.306-0.629-0.658-1.115-1.151-1.588-1.451-1.392-3.437-1.936-5.235-1.432-2.043 0.573-3.558 2.123-4.090 4.186-0.116 0.449-0.155 0.947-0.134 1.713 0.014 0.535 0.028 0.673 0.090 0.94 0.356 1.519 1.218 2.774 2.481 3.613 1.126 0.748 2.491 1.069 3.733 0.877zM10.783 19.351c-0.419-0.045-1.113-0.248-1.48-0.432-0.478-0.24-0.838-0.535-1.073-0.881-0.315-0.464-0.385-0.893-0.217-1.341l0.068-0.181 1.365 0.014c1.902 0.020 2.754 0.018 4.32-0.010l1.358-0.024 0.063 0.167c0.156 0.417 0.135 0.733-0.079 1.16-0.253 0.505-0.792 0.946-1.493 1.222-0.367 0.144-0.87 0.273-1.206 0.308-0.297 0.031-1.332 0.030-1.625-0.001zM8.986 14.242c-0.623-0.631-0.875-0.983-0.994-1.388-0.053-0.179-0.056-0.488-0.008-0.62 0.060-0.161 0.211-0.346 0.338-0.411 0.27-0.138 0.691-0.083 0.967 0.125 0.066 0.050 0.137 0.104 0.158 0.119 0.027 0.020 0.064 0.002 0.131-0.063 0.051-0.050 0.171-0.126 0.265-0.17 0.148-0.069 0.206-0.080 0.428-0.080 0.218 0 0.275 0.011 0.377 0.069 0.223 0.127 0.346 0.375 0.348 0.702 0.002 0.365-0.121 0.643-0.507 1.142-0.2 0.258-0.963 1.037-1.017 1.037-0.016 0-0.235-0.208-0.486-0.463zM13.387 14.356c-0.805-0.785-1.141-1.31-1.146-1.789-0.003-0.261 0.040-0.414 0.154-0.559 0.197-0.25 0.488-0.323 0.848-0.214 0.11 0.034 0.256 0.103 0.324 0.155 0.195 0.149 0.189 0.148 0.311 0.050 0.258-0.207 0.65-0.306 0.919-0.23 0.379 0.106 0.583 0.558 0.463 1.027-0.053 0.205-0.217 0.529-0.374 0.735-0.246 0.323-1.066 1.175-1.131 1.175-0.006 0-0.172-0.157-0.369-0.349z"></path>
</symbol>
<symbol id="icon-smiley" viewBox="0 0 23 32">
<title>smiley</title>
<path d="M13.639 15.906c0.1 0.183 0.158 0.395 0.158 0.615 0 0.638-0.489 1.205-1.246 1.565l-0.008 0.003c-0.524 0.249-1.189 0.399-1.91 0.399-0.659 0-1.271-0.125-1.777-0.339l0.011 0.004c-0.848-0.358-1.398-0.955-1.398-1.632 0-0.181 0.039-0.356 0.113-0.523l-0.005 0.014zM9.806 12.644c0 0.614-0.434 1.112-0.969 1.112v0c-0.535 0-0.969-0.498-0.969-1.112v0c0-0.614 0.434-1.112 0.969-1.112v0c0.535 0 0.969 0.498 0.969 1.112v0zM13.398 12.644c0 0.614-0.434 1.112-0.969 1.112v0c-0.535 0-0.969-0.498-0.969-1.112v0c0-0.614 0.434-1.112 0.969-1.112v0c0.535 0 0.969 0.498 0.969 1.112v0zM10.69 8.51c-3.196 0-5.787 2.591-5.787 5.787v0c0 3.196 2.591 5.787 5.787 5.787v0c3.196 0 5.787-2.591 5.787-5.787v0c0-3.196-2.591-5.787-5.787-5.787v0zM10.662 9.308c2.739 0 4.96 2.246 4.96 5.017v0c0 2.771-2.221 5.017-4.96 5.017v0c-2.739 0-4.96-2.246-4.96-5.017v0c0-2.771 2.221-5.017 4.96-5.017v0z"></path>
</symbol>
<symbol id="icon-stars" viewBox="0 0 23 32">
<title>stars</title>
<path d="M14.307 16.928c0.116 0.18 0.183 0.389 0.183 0.607 0 0.572-0.463 1.080-1.179 1.4l-0.008 0.003c-0.486 0.217-1.101 0.348-1.766 0.348s-1.281-0.131-1.775-0.352l0.008 0.003c-0.723-0.323-1.185-0.831-1.185-1.403 0-0.218 0.067-0.427 0.19-0.62l-0.007 0.012zM10.445 14.621l-0.763-0.397-0.774 0.377 0.153-0.828-0.608-0.599 0.857-0.115 0.398-0.747 0.377 0.758 0.854 0.137-0.624 0.583zM14.069 14.621l-0.763-0.397-0.774 0.377 0.153-0.828-0.608-0.599 0.857-0.115 0.398-0.747 0.377 0.758 0.854 0.137-0.624 0.583zM11.497 9.601c-3.196 0-5.787 2.591-5.787 5.787v0c0 3.196 2.591 5.787 5.787 5.787v0c3.196 0 5.787-2.591 5.787-5.787v0c0-3.196-2.591-5.787-5.787-5.787v0zM11.468 10.4c2.739 0 4.96 2.246 4.96 5.017v0c0 2.771-2.221 5.017-4.96 5.017v0c-2.739 0-4.96-2.246-4.96-5.017v0c0-2.771 2.221-5.017 4.96-5.017v0z"></path>
</symbol>
<symbol id="icon-tongue" viewBox="0 0 23 32">
<title>tongue</title>
<path d="M7.604 13.613c-0.044 0.061-0.069 0.132-0.069 0.204 0 0.336 0.543 0.632 1.37 0.808l0.011 0.002c0.299 0.063 0.648 0.112 1.023 0.14l0.021 0.001c0.017 0.657 0.149 1.225 0.345 1.573l0.003 0.005c0.125 0.222 0.279 0.354 0.444 0.354s0.319-0.132 0.447-0.358l-0.003 0.005c0.199-0.354 0.333-0.928 0.348-1.585l0-0.006c0.335-0.031 0.627-0.074 0.89-0.13l-0.011 0.002c0.839-0.178 1.383-0.474 1.383-0.81 0-0.072-0.025-0.142-0.072-0.21l0.004 0.006-3.067 0.203zM10.747 14.793l-0.036 1.305c-0.030 0.035-0.067 0.065-0.090 0.106v0.057c0 0.019-0.009-0.040 0-0.057v-0.513c0-0.021 0.002-0.226 0-0.228-0.013-0.013-0.044 0.013-0.057 0s0-0.038 0-0.057v-0.228c0-0.179 0-0.242 0.082-0.383 0.039-0 0.074-0.001 0.109-0.001l-0.009 0zM9.766 10.587c0 0.614-0.434 1.112-0.969 1.112v0c-0.535 0-0.969-0.498-0.969-1.112v0c0-0.614 0.434-1.112 0.969-1.112v0c0.535 0 0.969 0.498 0.969 1.112v0zM13.358 10.587c0 0.614-0.434 1.112-0.969 1.112v0c-0.535 0-0.969-0.498-0.969-1.112v0c0-0.614 0.434-1.112 0.969-1.112v0c0.535 0 0.969 0.498 0.969 1.112v0zM10.65 6.454c-3.196 0-5.787 2.591-5.787 5.787v0c0 3.196 2.591 5.787 5.787 5.787v0c3.196 0 5.787-2.591 5.787-5.787v0c0-3.196-2.591-5.787-5.787-5.787v0zM10.621 7.252c2.739 0 4.96 2.246 4.96 5.017v0c0 2.771-2.221 5.017-4.96 5.017v0c-2.739 0-4.96-2.246-4.96-5.017v0c0-2.771 2.221-5.017 4.96-5.017v0z"></path>
</symbol>
<symbol id="icon-wink" viewBox="0 0 23 32">
<title>wink</title>
<path d="M10.996 12.534h2.362v0.57h-2.362zM9.806 12.644c0 0.614-0.434 1.112-0.969 1.112v0c-0.535 0-0.969-0.498-0.969-1.112v0c0-0.614 0.434-1.112 0.969-1.112v0c0.535 0 0.969 0.498 0.969 1.112v0zM13.639 15.906c0.1 0.183 0.158 0.395 0.158 0.615 0 0.638-0.489 1.205-1.246 1.565l-0.008 0.003c-0.524 0.249-1.189 0.399-1.91 0.399-0.659 0-1.271-0.125-1.777-0.339l0.011 0.004c-0.848-0.358-1.398-0.955-1.398-1.632 0-0.181 0.039-0.356 0.113-0.523l-0.005 0.014zM10.69 8.51c-3.196 0-5.787 2.591-5.787 5.787v0c0 3.196 2.591 5.787 5.787 5.787v0c3.196 0 5.787-2.591 5.787-5.787v0c0-3.196-2.591-5.787-5.787-5.787v0zM10.662 9.308c2.739 0 4.96 2.246 4.96 5.017v0c0 2.771-2.221 5.017-4.96 5.017v0c-2.739 0-4.96-2.246-4.96-5.017v0c0-2.771 2.221-5.017 4.96-5.017v0z"></path>
</symbol>
<symbol id="icon-x_eyes" viewBox="0 0 23 32">
<title>x_eyes</title>
<path d="M10.941 13.497l2.080-1.682 0.31 0.080-2.080 1.682zM7.764 13.579l2.080-1.682 0.31 0.080-2.080 1.682zM13.639 15.906c0.411 0.793-0.007 1.668-1.087 2.179l-0.009 0.004c-0.056 0.027-0.124 0.056-0.194 0.084-1.089 0.437-2.449 0.406-3.465-0.012l-0.018-0.008c-0.336-0.137-0.648-0.33-0.892-0.565-0.504-0.485-0.621-1.056-0.399-1.574l0.001-0.002zM10.69 8.51c-0.379-0.004-0.805 0.040-1.231 0.132-2.697 0.587-4.542 2.966-4.558 5.615l0.001 0.039c-0.004 0.379 0.040 0.805 0.132 1.231 0.587 2.697 2.966 4.542 5.615 4.558l0.039-0.001c0.379 0.004 0.805-0.040 1.231-0.132 2.697-0.587 4.542-2.966 4.558-5.615l-0.001-0.039c0.004-0.379-0.040-0.805-0.132-1.231-0.587-2.697-2.966-4.542-5.615-4.558l-0.039 0.001zM10.662 9.308c2.312 0.012 4.356 1.623 4.851 3.97 0.077 0.363 0.112 0.725 0.11 1.081l-0.001-0.034c-0.012 2.339-1.604 4.406-3.925 4.907-0.359 0.078-0.717 0.114-1.069 0.112l0.033-0.001c-2.312-0.012-4.356-1.623-4.851-3.97-0.077-0.363-0.112-0.725-0.11-1.081l0.001 0.034c0.012-2.339 1.604-4.406 3.925-4.907 0.359-0.078 0.717-0.114 1.069-0.112l-0.033 0.001zM7.764 11.977l2.080 1.682 0.31-0.080-2.080-1.682zM10.941 11.896l2.080 1.682 0.31-0.080-2.080-1.682z"></path>
</symbol>
</defs>
</svg>
